Wavefont-ExtraLight.ufo
<glyph name="_2" format="2">
  <advance width="16.0"/>
  <unicode hex="0102"/>
  <unicode hex="0062"/>
  <outline>
    <contour>
      <point x="0.0" y="8.477551020408164" type="line"/>
      <point x="0.0" y="12.477551020408164" type="line"/>
      <point x="16.0" y="12.477551020408164" type="line"/>
      <point x="16.0" y="8.477551020408164" type="line"/>
    </contour>
    <component base="cap"/>
    <component base="cap" yOffset="4.0"/>
  </outline>
</glyph>
<glyph name="_6" format="2">
  <advance width="16.0"/>
  <unicode hex="0106"/>
  <unicode hex="0064"/>
  <outline>
    <contour>
      <point x="0.0" y="8.477551020408164" type="line"/>
      <point x="0.0" y="52.477551020408164" type="line"/>
      <point x="16.0" y="52.477551020408164" type="line"/>
      <point x="16.0" y="8.477551020408164" type="line"/>
    </contour>
    <component base="cap"/>
    <component base="cap" yOffset="44.0"/>
  </outline>
</glyph>
<glyph name="_7" format="2">
  <advance width="16.0"/>
  <unicode hex="0107"/>
  <outline>
    <contour>
      <point x="0.0" y="8.477551020408164" type="line"/>
      <point x="0.0" y="62.477551020408164" type="line"/>
      <point x="16.0" y="62.477551020408164" type="line"/>
      <point x="16.0" y="8.477551020408164" type="line"/>
    </contour>
    <component base="cap"/>
    <component base="cap" yOffset="54.0"/>
  </outline>
</glyph>
<glyph name="_9" format="2">
  <advance width="16.0"/>
  <unicode hex="0109"/>
  <outline>
    <contour>
      <point x="0.0" y="8.477551020408164" type="line"/>
      <point x="0.0" y="82.47755102040816" type="line"/>
      <point x="16.0" y="82.47755102040816" type="line"/>
      <point x="16.0" y="8.477551020408164" type="line"/>
    </contour>
    <component base="cap"/>
    <component base="cap" yOffset="74.0"/>
  </outline>
</glyph>
<glyph name="_12" format="2">
  <advance width="16.0"/>
  <unicode hex="010C"/>
  <unicode hex="0067"/>
  <outline>
    <contour>
      <point x="0.0" y="8.477551020408164" type="line"/>
      <point x="0.0" y="112.47755102040816" type="line"/>
      <point x="16.0" y="112.47755102040816" type="line"/>
      <point x="16.0" y="8.477551020408164" type="line"/>
    </contour>
    <component base="cap"/>
    <component base="cap" yOffset="104.0"/>
  </outline>
</glyph>
<glyph name="_14" format="2">
  <advance width="16.0"/>
  <unicode hex="010E"/>
  <unicode hex="2582"/>
  <unicode hex="0068"/>
  <outline>
    <contour>
      <point x="0.0" y="8.477551020408164" type="line"/>
      <point x="0.0" y="132.47755102040816" type="line"/>
      <point x="16.0" y="132.47755102040816" type="line"/>
      <point x="16.0" y="8.477551020408164" type="line"/>
    </contour>
    <component base="cap"/>
    <component base="cap" yOffset="124.0"/>
  </outline>
</glyph>
<glyph name="_16" format="2">
  <advance width="16.0"/>
  <unicode hex="0110"/>
  <unicode hex="0069"/>
  <outline>
    <contour>
      <point x="0.0" y="8.477551020408164" type="line"/>
      <point x="0.0" y="152.47755102040816" type="line"/>
      <point x="16.0" y="152.47755102040816" type="line"/>
      <point x="16.0" y="8.477551020408164" type="line"/>
    </contour>
    <component base="cap"/>
    <component base="cap" yOffset="144.0"/>
  </outline>
</glyph>
<glyph name="_18" format="2">
  <advance width="16.0"/>
  <unicode hex="0112"/>
  <unicode hex="006A"/>
  <outline>
    <contour>
      <point x="0.0" y="8.477551020408164" type="line"/>
      <point x="0.0" y="172.47755102040816" type="line"/>
      <point x="16.0" y="172.47755102040816" type="line"/>
      <point x="16.0" y="8.477551020408164" type="line"/>
    </contour>
    <component base="cap"/>
    <component base="cap" yOffset="164.0"/>
  </outline>
</glyph>
<glyph name="_20" format="2">
  <advance width="16.0"/>
  <unicode hex="0114"/>
  <unicode hex="0032"/>
  <unicode hex="006B"/>
  <outline>
    <contour>
      <point x="0.0" y="8.477551020408164" type="line"/>
      <point x="0.0" y="192.47755102040816" type="line"/>
      <point x="16.0" y="192.47755102040816" type="line"/>
      <point x="16.0" y="8.477551020408164" type="line"/>
    </contour>
    <component base="cap"/>
    <component base="cap" yOffset="184.0"/>
  </outline>
</glyph>
<glyph name="_24" format="2">
  <advance width="16.0"/>
  <unicode hex="0118"/>
  <unicode hex="006D"/>
  <outline>
    <contour>
      <point x="0.0" y="8.477551020408164" type="line"/>
      <point x="0.0" y="232.47755102040816" type="line"/>
      <point x="16.0" y="232.47755102040816" type="line"/>
      <point x="16.0" y="8.477551020408164" type="line"/>
    </contour>
    <component base="cap"/>
    <component base="cap" yOffset="224.0"/>
  </outline>
</glyph>
<glyph name="_25" format="2">
  <advance width="16.0"/>
  <unicode hex="0119"/>
  <outline>
    <contour>
      <point x="0.0" y="8.477551020408164" type="line"/>
      <point x="0.0" y="242.47755102040816" type="line"/>
      <point x="16.0" y="242.47755102040816" type="line"/>
      <point x="16.0" y="8.477551020408164" type="line"/>
    </contour>
    <component base="cap"/>
    <component base="cap" yOffset="234.0"/>
  </outline>
</glyph>
<glyph name="_26" format="2">
  <advance width="16.0"/>
  <unicode hex="011A"/>
  <unicode hex="006E"/>
  <outline>
    <contour>
      <point x="0.0" y="8.477551020408164" type="line"/>
      <point x="0.0" y="252.47755102040816" type="line"/>
      <point x="16.0" y="252.47755102040816" type="line"/>
      <point x="16.0" y="8.477551020408164" type="line"/>
    </contour>
    <component base="cap"/>
    <component base="cap" yOffset="244.0"/>
  </outline>
</glyph>
<glyph name="_28" format="2">
  <advance width="16.0"/>
  <unicode hex="011C"/>
  <unicode hex="2583"/>
  <unicode hex="006F"/>
  <outline>
    <contour>
      <point x="0.0" y="8.477551020408164" type="line"/>
      <point x="0.0" y="272.47755102040816" type="line"/>
      <point x="16.0" y="272.47755102040816" type="line"/>
      <point x="16.0" y="8.477551020408164" type="line"/>
    </contour>
    <component base="cap"/>
    <component base="cap" yOffset="264.0"/>
  </outline>
</glyph>
<glyph name="_30" format="2">
  <advance width="16.0"/>
  <unicode hex="011E"/>
  <unicode hex="0033"/>
  <unicode hex="0070"/>
  <outline>
    <contour>
      <point x="0.0" y="8.477551020408164" type="line"/>
      <point x="0.0" y="292.47755102040816" type="line"/>
      <point x="16.0" y="292.47755102040816" type="line"/>
      <point x="16.0" y="8.477551020408164" type="line"/>
    </contour>
    <component base="cap"/>
    <component base="cap" yOffset="284.0"/>
  </outline>
</glyph>
<glyph name="_32" format="2">
  <advance width="16.0"/>
  <unicode hex="0120"/>
  <unicode hex="0071"/>
  <outline>
    <contour>
      <point x="0.0" y="8.477551020408164" type="line"/>
      <point x="0.0" y="312.47755102040816" type="line"/>
      <point x="16.0" y="312.47755102040816" type="line"/>
      <point x="16.0" y="8.477551020408164" type="line"/>
    </contour>
    <component base="cap"/>
    <component base="cap" yOffset="304.0"/>
  </outline>
</glyph>
<glyph name="_33" format="2">
  <advance width="16.0"/>
  <unicode hex="0121"/>
  <outline>
    <contour>
      <point x="0.0" y="8.477551020408164" type="line"/>
      <point x="0.0" y="322.47755102040816" type="line"/>
      <point x="16.0" y="322.47755102040816" type="line"/>
      <point x="16.0" y="8.477551020408164" type="line"/>
    </contour>
    <component base="cap"/>
    <component base="cap" yOffset="314.0"/>
  </outline>
</glyph>
<glyph name="_34" format="2">
  <advance width="16.0"/>
  <unicode hex="0122"/>
  <unicode hex="0072"/>
  <outline>
    <contour>
      <point x="0.0" y="8.477551020408164" type="line"/>
      <point x="0.0" y="332.47755102040816" type="line"/>
      <point x="16.0" y="332.47755102040816" type="line"/>
      <point x="16.0" y="8.477551020408164" type="line"/>
    </contour>
    <component base="cap"/>
    <component base="cap" yOffset="324.0"/>
  </outline>
</glyph>
<glyph name="_38" format="2">
  <advance width="16.0"/>
  <unicode hex="0126"/>
  <unicode hex="0074"/>
  <outline>
    <contour>
      <point x="0.0" y="8.477551020408164" type="line"/>
      <point x="0.0" y="372.47755102040816" type="line"/>
      <point x="16.0" y="372.47755102040816" type="line"/>
      <point x="16.0" y="8.477551020408164" type="line"/>
    </contour>
    <component base="cap"/>
    <component base="cap" yOffset="364.0"/>
  </outline>
</glyph>
<glyph name="_40" format="2">
  <advance width="16.0"/>
  <unicode hex="0128"/>
  <unicode hex="0034"/>
  <unicode hex="0075"/>
  <outline>
    <contour>
      <point x="0.0" y="8.477551020408164" type="line"/>
      <point x="0.0" y="392.47755102040816" type="line"/>
      <point x="16.0" y="392.47755102040816" type="line"/>
      <point x="16.0" y="8.477551020408164" type="line"/>
    </contour>
    <component base="cap"/>
    <component base="cap" yOffset="384.0"/>
  </outline>
</glyph>
<glyph name="_43" format="2">
  <advance width="16.0"/>
  <unicode hex="012B"/>
  <outline>
    <contour>
      <point x="0.0" y="8.477551020408164" type="line"/>
      <point x="0.0" y="422.47755102040816" type="line"/>
      <point x="16.0" y="422.47755102040816" type="line"/>
      <point x="16.0" y="8.477551020408164" type="line"/>
    </contour>
    <component base="cap"/>
    <component base="cap" yOffset="414.0"/>
  </outline>
</glyph>
<glyph name="_44" format="2">
  <advance width="16.0"/>
  <unicode hex="012C"/>
  <unicode hex="0077"/>
  <outline>
    <contour>
      <point x="0.0" y="8.477551020408164" type="line"/>
      <point x="0.0" y="432.47755102040816" type="line"/>
      <point x="16.0" y="432.47755102040816" type="line"/>
      <point x="16.0" y="8.477551020408164" type="line"/>
    </contour>
    <component base="cap"/>
    <component base="cap" yOffset="424.0"/>
  </outline>
</glyph>
<glyph name="_46" format="2">
  <advance width="16.0"/>
  <unicode hex="012E"/>
  <unicode hex="0078"/>
  <outline>
    <contour>
      <point x="0.0" y="8.477551020408164" type="line"/>
      <point x="0.0" y="452.47755102040816" type="line"/>
      <point x="16.0" y="452.47755102040816" type="line"/>
      <point x="16.0" y="8.477551020408164" type="line"/>
    </contour>
    <component base="cap"/>
    <component base="cap" yOffset="444.0"/>
  </outline>
</glyph>
<glyph name="_50" format="2">
  <advance width="16.0"/>
  <unicode hex="0132"/>
  <unicode hex="0035"/>
  <unicode hex="007A"/>
  <outline>
    <contour>
      <point x="0.0" y="8.477551020408164" type="line"/>
      <point x="0.0" y="492.47755102040816" type="line"/>
      <point x="16.0" y="492.47755102040816" type="line"/>
      <point x="16.0" y="8.477551020408164" type="line"/>
    </contour>
    <component base="cap"/>
    <component base="cap" yOffset="484.0"/>
  </outline>
</glyph>
<glyph name="_51" format="2">
  <advance width="16.0"/>
  <unicode hex="0133"/>
  <outline>
    <contour>
      <point x="0.0" y="8.477551020408164" type="line"/>
      <point x="0.0" y="502.47755102040816" type="line"/>
      <point x="16.0" y="502.47755102040816" type="line"/>
      <point x="16.0" y="8.477551020408164" type="line"/>
    </contour>
    <component base="cap"/>
    <component base="cap" yOffset="494.0"/>
  </outline>
</glyph>
<glyph name="_53" format="2">
  <advance width="16.0"/>
  <unicode hex="0135"/>
  <outline>
    <contour>
      <point x="0.0" y="8.477551020408164" type="line"/>
      <point x="0.0" y="522.4775510204082" type="line"/>
      <point x="16.0" y="522.4775510204082" type="line"/>
      <point x="16.0" y="8.477551020408164" type="line"/>
    </contour>
    <component base="cap"/>
    <component base="cap" yOffset="514.0"/>
  </outline>
</glyph>
<glyph name="_54" format="2">
  <advance width="16.0"/>
  <unicode hex="0136"/>
  <unicode hex="0042"/>
  <outline>
    <contour>
      <point x="0.0" y="8.477551020408164" type="line"/>
      <point x="0.0" y="532.4775510204082" type="line"/>
      <point x="16.0" y="532.4775510204082" type="line"/>
      <point x="16.0" y="8.477551020408164" type="line"/>
    </contour>
    <component base="cap"/>
    <component base="cap" yOffset="524.0"/>
  </outline>
</glyph>
<glyph name="_57" format="2">
  <advance width="16.0"/>
  <unicode hex="0139"/>
  <outline>
    <contour>
      <point x="0.0" y="8.477551020408164" type="line"/>
      <point x="0.0" y="562.4775510204082" type="line"/>
      <point x="16.0" y="562.4775510204082" type="line"/>
      <point x="16.0" y="8.477551020408164" type="line"/>
    </contour>
    <component base="cap"/>
    <component base="cap" yOffset="554.0"/>
  </outline>
</glyph>
<glyph name="_58" format="2">
  <advance width="16.0"/>
  <unicode hex="013A"/>
  <unicode hex="0044"/>
  <outline>
    <contour>
      <point x="0.0" y="8.477551020408164" type="line"/>
      <point x="0.0" y="572.4775510204082" type="line"/>
      <point x="16.0" y="572.4775510204082" type="line"/>
      <point x="16.0" y="8.477551020408164" type="line"/>
    </contour>
    <component base="cap"/>
    <component base="cap" yOffset="564.0"/>
  </outline>
</glyph>
<glyph name="_60" format="2">
  <advance width="16.0"/>
  <unicode hex="013C"/>
  <unicode hex="0036"/>
  <unicode hex="0045"/>
  <outline>
    <contour>
      <point x="0.0" y="8.477551020408164" type="line"/>
      <point x="0.0" y="592.4775510204082" type="line"/>
      <point x="16.0" y="592.4775510204082" type="line"/>
      <point x="16.0" y="8.477551020408164" type="line"/>
    </contour>
    <component base="cap"/>
    <component base="cap" yOffset="584.0"/>
  </outline>
</glyph>
<glyph name="_61" format="2">
  <advance width="16.0"/>
  <unicode hex="013D"/>
  <outline>
    <contour>
      <point x="0.0" y="8.477551020408164" type="line"/>
      <point x="0.0" y="602.4775510204082" type="line"/>
      <point x="16.0" y="602.4775510204082" type="line"/>
      <point x="16.0" y="8.477551020408164" type="line"/>
    </contour>
    <component base="cap"/>
    <component base="cap" yOffset="594.0"/>
  </outline>
</glyph>
<glyph name="_62" format="2">
  <advance width="16.0"/>
  <unicode hex="013E"/>
  <unicode hex="0046"/>
  <outline>
    <contour>
      <point x="0.0" y="8.477551020408164" type="line"/>
      <point x="0.0" y="612.4775510204082" type="line"/>
      <point x="16.0" y="612.4775510204082" type="line"/>
      <point x="16.0" y="8.477551020408164" type="line"/>
    </contour>
    <component base="cap"/>
    <component base="cap" yOffset="604.0"/>
  </outline>
</glyph>
<glyph name="_64" format="2">
  <advance width="16.0"/>
  <unicode hex="0140"/>
  <unicode hex="0047"/>
  <outline>
    <contour>
      <point x="0.0" y="8.477551020408164" type="line"/>
      <point x="0.0" y="632.4775510204082" type="line"/>
      <point x="16.0" y="632.4775510204082" type="line"/>
      <point x="16.0" y="8.477551020408164" type="line"/>
    </contour>
    <component base="cap"/>
    <component base="cap" yOffset="624.0"/>
  </outline>
</glyph>
<glyph name="_68" format="2">
  <advance width="16.0"/>
  <unicode hex="0144"/>
  <unicode hex="0049"/>
  <outline>
    <contour>
      <point x="0.0" y="8.477551020408164" type="line"/>
      <point x="0.0" y="672.4775510204082" type="line"/>
      <point x="16.0" y="672.4775510204082" type="line"/>
      <point x="16.0" y="8.477551020408164" type="line"/>
    </contour>
    <component base="cap"/>
    <component base="cap" yOffset="664.0"/>
  </outline>
</glyph>
<glyph name="_70" format="2">
  <advance width="16.0"/>
  <unicode hex="0146"/>
  <unicode hex="0037"/>
  <unicode hex="004A"/>
  <outline>
    <contour>
      <point x="0.0" y="8.477551020408164" type="line"/>
      <point x="0.0" y="692.4775510204082" type="line"/>
      <point x="16.0" y="692.4775510204082" type="line"/>
      <point x="16.0" y="8.477551020408164" type="line"/>
    </contour>
    <component base="cap"/>
    <component base="cap" yOffset="684.0"/>
  </outline>
</glyph>
<glyph name="_72" format="2">
  <advance width="16.0"/>
  <unicode hex="0148"/>
  <unicode hex="2586"/>
  <unicode hex="004B"/>
  <outline>
    <contour>
      <point x="0.0" y="8.477551020408164" type="line"/>
      <point x="0.0" y="712.4775510204082" type="line"/>
      <point x="16.0" y="712.4775510204082" type="line"/>
      <point x="16.0" y="8.477551020408164" type="line"/>
    </contour>
    <component base="cap"/>
    <component base="cap" yOffset="704.0"/>
  </outline>
</glyph>
<glyph name="_73" format="2">
  <advance width="16.0"/>
  <unicode hex="0149"/>
  <outline>
    <contour>
      <point x="0.0" y="8.477551020408164" type="line"/>
      <point x="0.0" y="722.4775510204082" type="line"/>
      <point x="16.0" y="722.4775510204082" type="line"/>
      <point x="16.0" y="8.477551020408164" type="line"/>
    </contour>
    <component base="cap"/>
    <component base="cap" yOffset="714.0"/>
  </outline>
</glyph>
<glyph name="_74" format="2">
  <advance width="16.0"/>
  <unicode hex="014A"/>
  <unicode hex="004C"/>
  <outline>
    <contour>
      <point x="0.0" y="8.477551020408164" type="line"/>
      <point x="0.0" y="732.4775510204082" type="line"/>
      <point x="16.0" y="732.4775510204082" type="line"/>
      <point x="16.0" y="8.477551020408164" type="line"/>
    </contour>
    <component base="cap"/>
    <component base="cap" yOffset="724.0"/>
  </outline>
</glyph>
<glyph name="_75" format="2">
  <advance width="16.0"/>
  <unicode hex="014B"/>
  <outline>
    <contour>
      <point x="0.0" y="8.477551020408164" type="line"/>
      <point x="0.0" y="742.4775510204082" type="line"/>
      <point x="16.0" y="742.4775510204082" type="line"/>
      <point x="16.0" y="8.477551020408164" type="line"/>
    </contour>
    <component base="cap"/>
    <component base="cap" yOffset="734.0"/>
  </outline>
</glyph>
<glyph name="_76" format="2">
  <advance width="16.0"/>
  <unicode hex="014C"/>
  <unicode hex="004D"/>
  <outline>
    <contour>
      <point x="0.0" y="8.477551020408164" type="line"/>
      <point x="0.0" y="752.4775510204082" type="line"/>
      <point x="16.0" y="752.4775510204082" type="line"/>
      <point x="16.0" y="8.477551020408164" type="line"/>
    </contour>
    <component base="cap"/>
    <component base="cap" yOffset="744.0"/>
  </outline>
</glyph>
<glyph name="_82" format="2">
  <advance width="16.0"/>
  <unicode hex="0152"/>
  <unicode hex="0050"/>
  <outline>
    <contour>
      <point x="0.0" y="8.477551020408164" type="line"/>
      <point x="0.0" y="812.4775510204082" type="line"/>
      <point x="16.0" y="812.4775510204082" type="line"/>
      <point x="16.0" y="8.477551020408164" type="line"/>
    </contour>
    <component base="cap"/>
    <component base="cap" yOffset="804.0"/>
  </outline>
</glyph>
<glyph name="_83" format="2">
  <advance width="16.0"/>
  <unicode hex="0153"/>
  <outline>
    <contour>
      <point x="0.0" y="8.477551020408164" type="line"/>
      <point x="0.0" y="822.4775510204082" type="line"/>
      <point x="16.0" y="822.4775510204082" type="line"/>
      <point x="16.0" y="8.477551020408164" type="line"/>
    </contour>
    <component base="cap"/>
    <component base="cap" yOffset="814.0"/>
  </outline>
</glyph>
<glyph name="_84" format="2">
  <advance width="16.0"/>
  <unicode hex="0154"/>
  <unicode hex="0051"/>
  <outline>
    <contour>
      <point x="0.0" y="8.477551020408164" type="line"/>
      <point x="0.0" y="832.4775510204082" type="line"/>
      <point x="16.0" y="832.4775510204082" type="line"/>
      <point x="16.0" y="8.477551020408164" type="line"/>
    </contour>
    <component base="cap"/>
    <component base="cap" yOffset="824.0"/>
  </outline>
</glyph>
<glyph name="_86" format="2">
  <advance width="16.0"/>
  <unicode hex="0156"/>
  <unicode hex="2587"/>
  <unicode hex="0052"/>
  <outline>
    <contour>
      <point x="0.0" y="8.477551020408164" type="line"/>
      <point x="0.0" y="852.4775510204082" type="line"/>
      <point x="16.0" y="852.4775510204082" type="line"/>
      <point x="16.0" y="8.477551020408164" type="line"/>
    </contour>
    <component base="cap"/>
    <component base="cap" yOffset="844.0"/>
  </outline>
</glyph>
<glyph name="_87" format="2">
  <advance width="16.0"/>
  <unicode hex="0157"/>
  <outline>
    <contour>
      <point x="0.0" y="8.477551020408164" type="line"/>
      <point x="0.0" y="862.4775510204082" type="line"/>
      <point x="16.0" y="862.4775510204082" type="line"/>
      <point x="16.0" y="8.477551020408164" type="line"/>
    </contour>
    <component base="cap"/>
    <component base="cap" yOffset="854.0"/>
  </outline>
</glyph>
<glyph name="_88" format="2">
  <advance width="16.0"/>
  <unicode hex="0158"/>
  <unicode hex="0053"/>
  <outline>
    <contour>
      <point x="0.0" y="8.477551020408164" type="line"/>
      <point x="0.0" y="872.4775510204082" type="line"/>
      <point x="16.0" y="872.4775510204082" type="line"/>
      <point x="16.0" y="8.477551020408164" type="line"/>
    </contour>
    <component base="cap"/>
    <component base="cap" yOffset="864.0"/>
  </outline>
</glyph>
<glyph name="_89" format="2">
  <advance width="16.0"/>
  <unicode hex="0159"/>
  <outline>
    <contour>
      <point x="0.0" y="8.477551020408164" type="line"/>
      <point x="0.0" y="882.4775510204082" type="line"/>
      <point x="16.0" y="882.4775510204082" type="line"/>
      <point x="16.0" y="8.477551020408164" type="line"/>
    </contour>
    <component base="cap"/>
    <component base="cap" yOffset="874.0"/>
  </outline>
</glyph>
<glyph name="_90" format="2">
  <advance width="16.0"/>
  <unicode hex="015A"/>
  <unicode hex="0039"/>
  <unicode hex="0054"/>
  <outline>
    <contour>
      <point x="0.0" y="8.477551020408164" type="line"/>
      <point x="0.0" y="892.4775510204082" type="line"/>
      <point x="16.0" y="892.4775510204082" type="line"/>
      <point x="16.0" y="8.477551020408164" type="line"/>
    </contour>
    <component base="cap"/>
    <component base="cap" yOffset="884.0"/>
  </outline>
</glyph>
<glyph name="_91" format="2">
  <advance width="16.0"/>
  <unicode hex="015B"/>
  <outline>
    <contour>
      <point x="0.0" y="8.477551020408164" type="line"/>
      <point x="0.0" y="902.4775510204082" type="line"/>
      <point x="16.0" y="902.4775510204082" type="line"/>
      <point x="16.0" y="8.477551020408164" type="line"/>
    </contour>
    <component base="cap"/>
    <component base="cap" yOffset="894.0"/>
  </outline>
</glyph>
<glyph name="_92" format="2">
  <advance width="16.0"/>
  <unicode hex="015C"/>
  <unicode hex="0055"/>
  <outline>
    <contour>
      <point x="0.0" y="8.477551020408164" type="line"/>
      <point x="0.0" y="912.4775510204082" type="line"/>
      <point x="16.0" y="912.4775510204082" type="line"/>
      <point x="16.0" y="8.477551020408164" type="line"/>
    </contour>
    <component base="cap"/>
    <component base="cap" yOffset="904.0"/>
  </outline>
</glyph>
<glyph name="_96" format="2">
  <advance width="16.0"/>
  <unicode hex="0160"/>
  <unicode hex="0057"/>
  <outline>
    <contour>
      <point x="0.0" y="8.477551020408164" type="line"/>
      <point x="0.0" y="952.4775510204082" type="line"/>
      <point x="16.0" y="952.4775510204082" type="line"/>
      <point x="16.0" y="8.477551020408164" type="line"/>
    </contour>
    <component base="cap"/>
    <component base="cap" yOffset="944.0"/>
  </outline>
</glyph>
<glyph name="_98" format="2">
  <advance width="16.0"/>
  <unicode hex="0162"/>
  <unicode hex="0058"/>
  <outline>
    <contour>
      <point x="0.0" y="8.477551020408164" type="line"/>
      <point x="0.0" y="972.4775510204082" type="line"/>
      <point x="16.0" y="972.4775510204082" type="line"/>
      <point x="16.0" y="8.477551020408164" type="line"/>
    </contour>
    <component base="cap"/>
    <component base="cap" yOffset="964.0"/>
  </outline>
</glyph>
<glyph name="_100" format="2">
  <advance width="16.0"/>
  <unicode hex="0164"/>
  <unicode hex="007C"/>
  <unicode hex="2588"/>
  <unicode hex="005A"/>
  <outline>
    <contour>
      <point x="0.0" y="8.477551020408164" type="line"/>
      <point x="0.0" y="992.4775510204082" type="line"/>
      <point x="16.0" y="992.4775510204082" type="line"/>
      <point x="16.0" y="8.477551020408164" type="line"/>
    </contour>
    <component base="cap"/>
    <component base="cap" yOffset="984.0"/>
  </outline>
</glyph>
<glyph name="_102" format="2">
  <advance width="16.0"/>
  <unicode hex="0166"/>
  <outline>
    <contour>
      <point x="0.0" y="8.477551020408164" type="line"/>
      <point x="0.0" y="1012.4775510204082" type="line"/>
      <point x="16.0" y="1012.4775510204082" type="line"/>
      <point x="16.0" y="8.477551020408164" type="line"/>
    </contour>
    <component base="cap"/>
    <component base="cap" yOffset="1004.0"/>
  </outline>
</glyph>
<glyph name="_106" format="2">
  <advance width="16.0"/>
  <unicode hex="016A"/>
  <outline>
    <contour>
      <point x="0.0" y="8.477551020408164" type="line"/>
      <point x="0.0" y="1052.477551020408" type="line"/>
      <point x="16.0" y="1052.477551020408" type="line"/>
      <point x="16.0" y="8.477551020408164" type="line"/>
    </contour>
    <component base="cap"/>
    <component base="cap" yOffset="1044.0"/>
  </outline>
</glyph>
<glyph name="_107" format="2">
  <advance width="16.0"/>
  <unicode hex="016B"/>
  <outline>
    <contour>
      <point x="0.0" y="8.477551020408164" type="line"/>
      <point x="0.0" y="1062.477551020408" type="line"/>
      <point x="16.0" y="1062.477551020408" type="line"/>
      <point x="16.0" y="8.477551020408164" type="line"/>
    </contour>
    <component base="cap"/>
    <component base="cap" yOffset="1054.0"/>
  </outline>
</glyph>
<glyph name="_109" format="2">
  <advance width="16.0"/>
  <unicode hex="016D"/>
  <outline>
    <contour>
      <point x="0.0" y="8.477551020408164" type="line"/>
      <point x="0.0" y="1082.477551020408" type="line"/>
      <point x="16.0" y="1082.477551020408" type="line"/>
      <point x="16.0" y="8.477551020408164" type="line"/>
    </contour>
    <component base="cap"/>
    <component base="cap" yOffset="1074.0"/>
  </outline>
</glyph>
<glyph name="_113" format="2">
  <advance width="16.0"/>
  <unicode hex="0171"/>
  <outline>
    <contour>
      <point x="0.0" y="8.477551020408164" type="line"/>
      <point x="0.0" y="1122.477551020408" type="line"/>
      <point x="16.0" y="1122.477551020408" type="line"/>
      <point x="16.0" y="8.477551020408164" type="line"/>
    </contour>
    <component base="cap"/>
    <component base="cap" yOffset="1114.0"/>
  </outline>
</glyph>
<glyph name="_115" format="2">
  <advance width="16.0"/>
  <unicode hex="0173"/>
  <outline>
    <contour>
      <point x="0.0" y="8.477551020408164" type="line"/>
      <point x="0.0" y="1142.477551020408" type="line"/>
      <point x="16.0" y="1142.477551020408" type="line"/>
      <point x="16.0" y="8.477551020408164" type="line"/>
    </contour>
    <component base="cap"/>
    <component base="cap" yOffset="1134.0"/>
  </outline>
</glyph>
<glyph name="_118" format="2">
  <advance width="16.0"/>
  <unicode hex="0176"/>
  <outline>
    <contour>
      <point x="0.0" y="8.477551020408164" type="line"/>
      <point x="0.0" y="1172.477551020408" type="line"/>
      <point x="16.0" y="1172.477551020408" type="line"/>
      <point x="16.0" y="8.477551020408164" type="line"/>
    </contour>
    <component base="cap"/>
    <component base="cap" yOffset="1164.0"/>
  </outline>
</glyph>
<glyph name="_123" format="2">
  <advance width="16.0"/>
  <unicode hex="017B"/>
  <outline>
    <contour>
      <point x="0.0" y="8.477551020408164" type="line"/>
      <point x="0.0" y="1222.477551020408" type="line"/>
      <point x="16.0" y="1222.477551020408" type="line"/>
      <point x="16.0" y="8.477551020408164" type="line"/>
    </contour>
    <component base="cap"/>
    <component base="cap" yOffset="1214.0"/>
  </outline>
</glyph>
<glyph name="_1.clip" format="2">
  <advance width="16.0"/>
  <outline>
    <contour>
      <point x="0.0" y="8.477551020408164" type="line"/>
      <point x="0.0" y="2.477551020408163" type="line"/>
      <point x="16.0" y="2.477551020408163" type="line"/>
      <point x="16.0" y="8.477551020408164" type="line"/>
    </contour>
    <component base="cap"/>
    <component base="cap" yOffset="-6.0"/>
  </outline>
</glyph>
<glyph name="_11.clip" format="2">
  <advance width="16.0"/>
  <outline>
    <contour>
      <point x="55.0" y="110.0" type="curve" smooth="yes"/>
      <point x="-39.0" y="110.0" type="line"/>
      <point x="-8.75" y="110.0"/>
      <point x="16.0" y="85.25"/>
      <point x="16.0" y="55.0" type="curve" smooth="yes"/>
      <point x="16.0" y="55.0" type="line"/>
      <point x="16.0" y="24.75"/>
      <point x="-8.75" y="0.0"/>
      <point x="-39.0" y="0.0" type="curve" smooth="yes"/>
      <point x="55.0" y="0.0" type="line"/>
      <point x="24.75" y="0.0"/>
      <point x="0.0" y="24.75"/>
      <point x="0.0" y="55.0" type="curve" smooth="yes"/>
      <point x="0.0" y="55.0" type="line"/>
      <point x="0.0" y="85.25"/>
      <point x="24.75" y="110.0"/>
    </contour>
  </outline>
</glyph>
<glyph name="_12.clip" format="2">
  <advance width="16.0"/>
  <outline>
    <contour>
      <point x="60.0" y="120.0" type="curve" smooth="yes"/>
      <point x="-44.0" y="120.0" type="line"/>
      <point x="-10.044897959183674" y="120.0"/>
      <point x="16.0" y="93.0"/>
      <point x="16.0" y="60.0" type="curve" smooth="yes"/>
      <point x="16.0" y="60.0" type="line"/>
      <point x="16.0" y="26.0"/>
      <point x="-10.044897959183674" y="0.0"/>
      <point x="-44.0" y="0.0" type="curve" smooth="yes"/>
      <point x="60.0" y="0.0" type="line"/>
      <point x="26.0" y="0.0"/>
      <point x="0.0" y="26.0"/>
      <point x="0.0" y="60.0" type="curve" smooth="yes"/>
      <point x="0.0" y="60.0" type="line"/>
      <point x="0.0" y="93.0"/>
      <point x="26.0" y="120.0"/>
    </contour>
  </outline>
</glyph>
<glyph name="_13.clip" format="2">
  <advance width="16.0"/>
  <outline>
    <contour>
      <point x="65.0" y="130.0" type="curve" smooth="yes"/>
      <point x="-49.0" y="130.0" type="line"/>
      <point x="-13.25" y="130.0"/>
      <point x="16.0" y="100.75"/>
      <point x="16.0" y="65.0" type="curve" smooth="yes"/>
      <point x="16.0" y="65.0" type="line"/>
      <point x="16.0" y="29.25"/>
      <point x="-13.25" y="0.0"/>
      <point x="-49.0" y="0.0" type="curve" smooth="yes"/>
      <point x="65.0" y="0.0" type="line"/>
      <point x="29.25" y="0.0"/>
      <point x="0.0" y="29.25"/>
      <point x="0.0" y="65.0" type="curve" smooth="yes"/>
      <point x="0.0" y="65.0" type="line"/>
      <point x="0.0" y="100.75"/>
      <point x="29.25" y="130.0"/>
    </contour>
  </outline>
</glyph>
<glyph name="_14.clip" format="2">
  <advance width="16.0"/>
  <outline>
    <contour>
      <point x="70.0" y="140.0" type="curve" smooth="yes"/>
      <point x="-54.0" y="140.0" type="line"/>
      <point x="-15.5" y="140.0"/>
      <point x="16.0" y="108.5"/>
      <point x="16.0" y="70.0" type="curve" smooth="yes"/>
      <point x="16.0" y="70.0" type="line"/>
      <point x="16.0" y="31.5"/>
      <point x="-15.5" y="0.0"/>
      <point x="-54.0" y="0.0" type="curve" smooth="yes"/>
      <point x="70.0" y="0.0" type="line"/>
      <point x="31.5" y="0.0"/>
      <point x="0.0" y="31.5"/>
      <point x="0.0" y="70.0" type="curve" smooth="yes"/>
      <point x="0.0" y="70.0" type="line"/>
      <point x="0.0" y="108.5"/>
      <point x="31.5" y="140.0"/>
    </contour>
  </outline>
</glyph>
<glyph name="_17.clip" format="2">
  <advance width="16.0"/>
  <outline>
    <contour>
      <point x="85.0" y="170.0" type="curve" smooth="yes"/>
      <point x="-69.0" y="170.0" type="line"/>
      <point x="-22.25" y="170.0"/>
      <point x="16.0" y="131.75"/>
      <point x="16.0" y="85.0" type="curve" smooth="yes"/>
      <point x="16.0" y="85.0" type="line"/>
      <point x="16.0" y="38.25"/>
      <point x="-22.25" y="0.0"/>
      <point x="-69.0" y="0.0" type="curve" smooth="yes"/>
      <point x="85.0" y="0.0" type="line"/>
      <point x="38.25" y="0.0"/>
      <point x="0.0" y="38.25"/>
      <point x="0.0" y="85.0" type="curve" smooth="yes"/>
      <point x="0.0" y="85.0" type="line"/>
      <point x="0.0" y="131.75"/>
      <point x="38.25" y="170.0"/>
    </contour>
  </outline>
</glyph>
<glyph name="_18.clip" format="2">
  <advance width="16.0"/>
  <outline>
    <contour>
      <point x="90.0" y="180.0" type="curve" smooth="yes"/>
      <point x="-74.0" y="180.0" type="line"/>
      <point x="-24.5" y="180.0"/>
      <point x="16.0" y="139.5"/>
      <point x="16.0" y="90.0" type="curve" smooth="yes"/>
      <point x="16.0" y="90.0" type="line"/>
      <point x="16.0" y="40.5"/>
      <point x="-24.5" y="0.0"/>
      <point x="-74.0" y="0.0" type="curve" smooth="yes"/>
      <point x="90.0" y="0.0" type="line"/>
      <point x="40.5" y="0.0"/>
      <point x="0.0" y="40.5"/>
      <point x="0.0" y="90.0" type="curve" smooth="yes"/>
      <point x="0.0" y="90.0" type="line"/>
      <point x="0.0" y="139.5"/>
      <point x="40.5" y="180.0"/>
    </contour>
  </outline>
</glyph>
<glyph name="_2.clip" format="2">
  <advance width="16.0"/>
  <outline>
    <contour>
      <point x="10.0" y="20.0" type="curve" smooth="yes"/>
      <point x="6.0" y="20.0" type="line"/>
      <point x="11.5" y="20.0"/>
      <point x="16.0" y="15.5"/>
      <point x="16.0" y="10.0" type="curve" smooth="yes"/>
      <point x="16.0" y="10.0" type="line"/>
      <point x="16.0" y="4.5"/>
      <point x="11.5" y="0.0"/>
      <point x="6.0" y="0.0" type="curve" smooth="yes"/>
      <point x="10.0" y="0.0" type="line"/>
      <point x="4.5" y="0.0"/>
      <point x="0.0" y="4.5"/>
      <point x="0.0" y="10.0" type="curve" smooth="yes"/>
      <point x="0.0" y="10.0" type="line"/>
      <point x="0.0" y="15.5"/>
      <point x="4.5" y="20.0"/>
    </contour>
  </outline>
</glyph>
<glyph name="_20.clip" format="2">
  <advance width="16.0"/>
  <outline>
    <contour>
      <point x="100.0" y="200.0" type="curve" smooth="yes"/>
      <point x="-84.0" y="200.0" type="line"/>
      <point x="-28.044897959183672" y="200.0"/>
      <point x="16.0" y="155.0"/>
      <point x="16.0" y="100.0" type="curve" smooth="yes"/>
      <point x="16.0" y="100.0" type="line"/>
      <point x="16.0" y="44.0"/>
      <point x="-28.044897959183672" y="0.0"/>
      <point x="-84.0" y="0.0" type="curve" smooth="yes"/>
      <point x="100.0" y="0.0" type="line"/>
      <point x="44.0" y="0.0"/>
      <point x="0.0" y="44.0"/>
      <point x="0.0" y="100.0" type="curve" smooth="yes"/>
      <point x="0.0" y="100.0" type="line"/>
      <point x="0.0" y="155.0"/>
      <point x="44.0" y="200.0"/>
    </contour>
  </outline>
</glyph>
<glyph name="_3.clip" format="2">
  <advance width="16.0"/>
  <outline>
    <contour>
      <point x="15.0" y="30.0" type="curve" smooth="yes"/>
      <point x="1.0" y="30.0" type="line"/>
      <point x="9.25" y="30.0"/>
      <point x="16.0" y="23.25"/>
      <point x="16.0" y="15.0" type="curve" smooth="yes"/>
      <point x="16.0" y="15.0" type="line"/>
      <point x="16.0" y="6.75"/>
      <point x="9.25" y="0.0"/>
      <point x="1.0" y="0.0" type="curve" smooth="yes"/>
      <point x="15.0" y="0.0" type="line"/>
      <point x="6.75" y="0.0"/>
      <point x="0.0" y="6.75"/>
      <point x="0.0" y="15.0" type="curve" smooth="yes"/>
      <point x="0.0" y="15.0" type="line"/>
      <point x="0.0" y="23.25"/>
      <point x="6.75" y="30.0"/>
    </contour>
  </outline>
</glyph>
<glyph name="_4.clip" format="2">
  <advance width="16.0"/>
  <outline>
    <contour>
      <point x="20.0" y="40.0" type="curve" smooth="yes"/>
      <point x="-4.0" y="40.0" type="line"/>
      <point x="7.0" y="40.0"/>
      <point x="16.0" y="31.0"/>
      <point x="16.0" y="20.0" type="curve" smooth="yes"/>
      <point x="16.0" y="20.0" type="line"/>
      <point x="16.0" y="9.0"/>
      <point x="7.0" y="0.0"/>
      <point x="-4.0" y="0.0" type="curve" smooth="yes"/>
      <point x="20.0" y="0.0" type="line"/>
      <point x="9.0" y="0.0"/>
      <point x="0.0" y="9.0"/>
      <point x="0.0" y="20.0" type="curve" smooth="yes"/>
      <point x="0.0" y="20.0" type="line"/>
      <point x="0.0" y="31.0"/>
      <point x="9.0" y="40.0"/>
    </contour>
  </outline>
</glyph>
<glyph name="_5.clip" format="2">
  <advance width="16.0"/>
  <outline>
    <contour>
      <point x="25.0" y="50.0" type="curve" smooth="yes"/>
      <point x="-9.0" y="50.0" type="line"/>
      <point x="4.75" y="50.0"/>
      <point x="16.0" y="38.75"/>
      <point x="16.0" y="25.0" type="curve" smooth="yes"/>
      <point x="16.0" y="25.0" type="line"/>
      <point x="16.0" y="11.25"/>
      <point x="4.75" y="0.0"/>
      <point x="-9.0" y="0.0" type="curve" smooth="yes"/>
      <point x="25.0" y="0.0" type="line"/>
      <point x="11.25" y="0.0"/>
      <point x="0.0" y="11.25"/>
      <point x="0.0" y="25.0" type="curve" smooth="yes"/>
      <point x="0.0" y="25.0" type="line"/>
      <point x="0.0" y="38.75"/>
      <point x="11.25" y="50.0"/>
    </contour>
  </outline>
</glyph>
<glyph name="_7.clip" format="2">
  <advance width="16.0"/>
  <outline>
    <contour>
      <point x="35.0" y="70.0" type="curve" smooth="yes"/>
      <point x="-19.0" y="70.0" type="line"/>
      <point x="0.25" y="70.0"/>
      <point x="16.0" y="54.25"/>
      <point x="16.0" y="35.0" type="curve" smooth="yes"/>
      <point x="16.0" y="35.0" type="line"/>
      <point x="16.0" y="15.75"/>
      <point x="0.25" y="0.0"/>
      <point x="-19.0" y="0.0" type="curve" smooth="yes"/>
      <point x="35.0" y="0.0" type="line"/>
      <point x="15.75" y="0.0"/>
      <point x="0.0" y="15.75"/>
      <point x="0.0" y="35.0" type="curve" smooth="yes"/>
      <point x="0.0" y="35.0" type="line"/>
      <point x="0.0" y="54.25"/>
      <point x="15.75" y="70.0"/>
    </contour>
  </outline>
</glyph>
<glyph name="_9.clip" format="2">
  <advance width="16.0"/>
  <outline>
    <contour>
      <point x="45.0" y="90.0" type="curve" smooth="yes"/>
      <point x="-29.0" y="90.0" type="line"/>
      <point x="-4.25" y="90.0"/>
      <point x="16.0" y="69.75"/>
      <point x="16.0" y="45.0" type="curve" smooth="yes"/>
      <point x="16.0" y="45.0" type="line"/>
      <point x="16.0" y="20.25"/>
      <point x="-4.25" y="0.0"/>
      <point x="-29.0" y="0.0" type="curve" smooth="yes"/>
      <point x="45.0" y="0.0" type="line"/>
      <point x="20.25" y="0.0"/>
      <point x="0.0" y="20.25"/>
      <point x="0.0" y="45.0" type="curve" smooth="yes"/>
      <point x="0.0" y="45.0" type="line"/>
      <point x="0.0" y="69.75"/>
      <point x="20.25" y="90.0"/>
    </contour>
  </outline>
</glyph>
<glyph name="cap" format="2">
  <outline>
    <contour>
      <point x="8.0" y="16.0" type="curve" smooth="yes"/>
      <point x="8.0" y="16.0" type="line"/>
      <point x="12.399999999999999" y="16.0"/>
      <point x="16.0" y="12.399999999999999"/>
      <point x="16.0" y="8.0" type="curve" smooth="yes"/>
      <point x="16.0" y="8.0" type="line"/>
      <point x="16.0" y="3.5999999999999996"/>
      <point x="12.399999999999999" y="0.0"/>
      <point x="8.0" y="0.0" type="curve" smooth="yes"/>
      <point x="8.0" y="0.0" type="line"/>
      <point x="3.5999999999999996" y="0.0"/>
      <point x="0.0" y="3.5999999999999996"/>
      <point x="0.0" y="8.0" type="curve" smooth="yes"/>
      <point x="0.0" y="8.0" type="line"/>
      <point x="0.0" y="12.399999999999999"/>
      <point x="3.5999999999999996" y="16.0"/>
    </contour>
  </outline>
</glyph>
